<svg width="92" height="25" viewBox="0 0 92 25" fill="none" xmlns="http://www.w3.org/2000/svg">
<g clip-path="url(#clip0_2105_34050)">
<path d="M11.4867 9.87021C11.6517 9.37521 12.3507 9.37521 12.5157 9.87021L13.4832 12.7757C13.6961 13.4144 14.0549 13.9947 14.5311 14.4707C15.0073 14.9466 15.5879 15.3051 16.2267 15.5177L19.1307 16.4852C19.6257 16.6502 19.6257 17.3492 19.1307 17.5142L16.2252 18.4817C15.5865 18.6947 15.0062 19.0535 14.5302 19.5297C14.0543 20.0059 13.6958 20.5864 13.4832 21.2252L12.5157 24.1292C12.4801 24.2376 12.4112 24.332 12.3188 24.3989C12.2264 24.4658 12.1153 24.5019 12.0012 24.5019C11.8871 24.5019 11.7759 24.4658 11.6835 24.3989C11.5912 24.332 11.5223 24.2376 11.4867 24.1292L10.5192 21.2237C10.3064 20.5852 9.9478 20.005 9.47187 19.529C8.99594 19.0531 8.41572 18.6945 7.77718 18.4817L4.87168 17.5142C4.76329 17.4786 4.6689 17.4097 4.60198 17.3173C4.53506 17.225 4.49904 17.1138 4.49904 16.9997C4.49904 16.8856 4.53506 16.7745 4.60198 16.6821C4.6689 16.5897 4.76329 16.5208 4.87168 16.4852L7.77718 15.5177C8.41572 15.3049 8.99594 14.9463 9.47187 14.4704C9.9478 13.9945 10.3064 13.4142 10.5192 12.7757L11.4867 9.87021ZM5.69218 2.22171C5.71369 2.15675 5.75512 2.10022 5.8106 2.06016C5.86607 2.02009 5.93275 1.99853 6.00118 1.99853C6.06961 1.99853 6.13629 2.02009 6.19176 2.06016C6.24724 2.10022 6.28867 2.15675 6.31018 2.22171L6.89068 3.96471C7.15018 4.74171 7.75918 5.35071 8.53618 5.61021L10.2792 6.19071C10.3441 6.21222 10.4007 6.25365 10.4407 6.30912C10.4808 6.36459 10.5024 6.43128 10.5024 6.49971C10.5024 6.56813 10.4808 6.63482 10.4407 6.69029C10.4007 6.74576 10.3441 6.7872 10.2792 6.80871L8.53618 7.38921C8.15297 7.51688 7.80476 7.73205 7.51914 8.01767C7.23353 8.30329 7.01835 8.6515 6.89068 9.03471L6.31018 10.7777C6.28867 10.8427 6.24724 10.8992 6.19176 10.9393C6.13629 10.9793 6.06961 11.0009 6.00118 11.0009C5.93275 11.0009 5.86607 10.9793 5.8106 10.9393C5.75512 10.8992 5.71369 10.8427 5.69218 10.7777L5.11168 9.03471C4.98401 8.6515 4.76883 8.30329 4.48322 8.01767C4.1976 7.73205 3.84939 7.51688 3.46618 7.38921L1.72318 6.80871C1.65822 6.7872 1.60169 6.74576 1.56163 6.69029C1.52156 6.63482 1.5 6.56813 1.5 6.49971C1.5 6.43128 1.52156 6.36459 1.56163 6.30912C1.60169 6.25365 1.65822 6.21222 1.72318 6.19071L3.46618 5.61021C3.84939 5.48253 4.1976 5.26736 4.48322 4.98175C4.76883 4.69613 4.98401 4.34792 5.11168 3.96471L5.69218 2.22171ZM16.2957 0.648207C16.3105 0.605497 16.3382 0.568461 16.3751 0.542249C16.4119 0.516038 16.456 0.501953 16.5012 0.501953C16.5464 0.501953 16.5905 0.516038 16.6273 0.542249C16.6641 0.568461 16.6919 0.605497 16.7067 0.648207L17.0937 1.80921C17.2662 2.32821 17.6727 2.73471 18.1917 2.90721L19.3527 3.29421C19.3954 3.30901 19.4324 3.33676 19.4586 3.37359C19.4848 3.41042 19.4989 3.4545 19.4989 3.49971C19.4989 3.54491 19.4848 3.58899 19.4586 3.62582C19.4324 3.66265 19.3954 3.6904 19.3527 3.70521L18.1917 4.09221C17.9359 4.17729 17.7035 4.32083 17.5129 4.51143C17.3223 4.70203 17.1788 4.93444 17.0937 5.19021L16.7067 6.35121C16.6919 6.39392 16.6641 6.43095 16.6273 6.45717C16.5905 6.48338 16.5464 6.49746 16.5012 6.49746C16.456 6.49746 16.4119 6.48338 16.3751 6.45717C16.3382 6.43095 16.3105 6.39392 16.2957 6.35121L15.9087 5.19021C15.8236 4.93444 15.6801 4.70203 15.4895 4.51143C15.2989 4.32083 15.0664 4.17729 14.8107 4.09221L13.6512 3.70521C13.6085 3.6904 13.5714 3.66265 13.5452 3.62582C13.519 3.58899 13.5049 3.54491 13.5049 3.49971C13.5049 3.4545 13.519 3.41042 13.5452 3.37359C13.5714 3.33676 13.6085 3.30901 13.6512 3.29421L14.8122 2.90721C15.3312 2.73471 15.7377 2.32821 15.9102 1.80921L16.2957 0.649707V0.648207Z" fill="url(#paint0_linear_2105_34050)"/>
</g>
<path d="M37.5 21L32.22 6.1H34.76L39.08 18.82H38.58L42.88 6.1H45.42L40.14 21H37.5ZM51.0367 21.24C49.9567 21.24 48.9967 20.9933 48.1567 20.5C47.3301 19.9933 46.6834 19.3133 46.2167 18.46C45.7501 17.5933 45.5167 16.6267 45.5167 15.56C45.5167 14.4667 45.7501 13.5 46.2167 12.66C46.6967 11.82 47.3367 11.16 48.1367 10.68C48.9367 10.1867 49.8434 9.94 50.8567 9.94C51.6701 9.94 52.3967 10.08 53.0367 10.36C53.6767 10.64 54.2167 11.0267 54.6567 11.52C55.0967 12 55.4301 12.5533 55.6567 13.18C55.8967 13.8067 56.0167 14.4733 56.0167 15.18C56.0167 15.3533 56.0101 15.5333 55.9967 15.72C55.9834 15.9067 55.9567 16.08 55.9167 16.24H47.2967V14.44H54.6367L53.5567 15.26C53.6901 14.6067 53.6434 14.0267 53.4167 13.52C53.2034 13 52.8701 12.5933 52.4167 12.3C51.9767 11.9933 51.4567 11.84 50.8567 11.84C50.2567 11.84 49.7234 11.9933 49.2567 12.3C48.7901 12.5933 48.4301 13.02 48.1767 13.58C47.9234 14.1267 47.8234 14.7933 47.8767 15.58C47.8101 16.3133 47.9101 16.9533 48.1767 17.5C48.4567 18.0467 48.8434 18.4733 49.3367 18.78C49.8434 19.0867 50.4167 19.24 51.0567 19.24C51.7101 19.24 52.2634 19.0933 52.7167 18.8C53.1834 18.5067 53.5501 18.1267 53.8167 17.66L55.6567 18.56C55.4434 19.0667 55.1101 19.5267 54.6567 19.94C54.2167 20.34 53.6834 20.66 53.0567 20.9C52.4434 21.1267 51.7701 21.24 51.0367 21.24ZM58.2223 21V10.18H60.3823V12.3L60.1223 12.02C60.389 11.34 60.8157 10.8267 61.4023 10.48C61.989 10.12 62.669 9.94 63.4423 9.94C64.2423 9.94 64.949 10.1133 65.5623 10.46C66.1757 10.8067 66.6557 11.2867 67.0023 11.9C67.349 12.5133 67.5223 13.22 67.5223 14.02V21H65.2823V14.62C65.2823 14.0733 65.1823 13.6133 64.9823 13.24C64.7823 12.8533 64.4957 12.56 64.1223 12.36C63.7623 12.1467 63.349 12.04 62.8823 12.04C62.4157 12.04 61.9957 12.1467 61.6223 12.36C61.2623 12.56 60.9823 12.8533 60.7823 13.24C60.5823 13.6267 60.4823 14.0867 60.4823 14.62V21H58.2223ZM72.3372 21L77.5772 6.1H80.4972L85.7372 21H83.2172L82.0772 17.66H76.0172L74.8572 21H72.3372ZM76.6972 15.56H81.3572L78.7172 7.76H79.3772L76.6972 15.56ZM87.5048 21V6.1H89.8648V21H87.5048Z" fill="url(#paint1_linear_2105_34050)"/>
<defs>
<linearGradient id="paint0_linear_2105_34050" x1="18.6291" y1="5.07542" x2="-0.0831673" y2="13.6045" gradientUnits="userSpaceOnUse">
<stop stop-color="#0A2540"/>
<stop offset="0.3171" stop-color="#3B5166"/>
<stop offset="1" stop-color="#FFA077"/>
</linearGradient>
<linearGradient id="paint1_linear_2105_34050" x1="89.0907" y1="4.76404" x2="65.002" y2="39.8954" gradientUnits="userSpaceOnUse">
<stop stop-color="#0A2540"/>
<stop offset="0.3171" stop-color="#3B5166"/>
<stop offset="1" stop-color="#FFA077"/>
</linearGradient>
<clipPath id="clip0_2105_34050">
<rect width="24" height="24" fill="white" transform="translate(0 0.5)"/>
</clipPath>
</defs>
</svg>
